{
   "accessors" : [
      {
         "bufferView" : 2,
         "byteOffset" : 0,
         "componentType" : 5126,
         "count" : 9762,
         "max" : [ 1, 1, 1, 1 ],
         "min" : [ 0.006584956776350737, 0.006584956776350737, 0.006584956776350737, 1 ],
         "name" : "accessor_color_m0-PolyPaper17_-157658",
         "type" : "VEC4"
      },
      {
         "bufferView" : 2,
         "byteOffset" : 156192,
         "componentType" : 5126,
         "count" : 62,
         "max" : [ 1, 1, 1, 1 ],
         "min" : [ 1, 1, 1, 1 ],
         "name" : "accessor_color_m1-PolyGem25_-157660",
         "type" : "VEC4"
      },
      {
         "bufferView" : 2,
         "byteOffset" : 157184,
         "componentType" : 5126,
         "count" : 9204,
         "max" : [ 1, 1, 1, 1 ],
         "min" : [ 0.006584956776350737, 0.006584956776350737, 0.006584956776350737, 1 ],
         "name" : "accessor_color_m2-PolyPaper21_-157662",
         "type" : "VEC4"
      },
      {
         "bufferView" : 0,
         "byteOffset" : 0,
         "componentType" : 5123,
         "count" : 14688,
         "max" : [ 9761 ],
         "min" : [ 0 ],
         "name" : "accessor_indices_0_m0-PolyPaper17_-157658",
         "type" : "SCALAR"
      },
      {
         "bufferView" : 0,
         "byteOffset" : 29376,
         "componentType" : 5123,
         "count" : 72,
         "max" : [ 61 ],
         "min" : [ 0 ],
         "name" : "accessor_indices_0_m1-PolyGem25_-157660",
         "type" : "SCALAR"
      },
      {
         "bufferView" : 0,
         "byteOffset" : 29520,
         "componentType" : 5123,
         "count" : 13884,
         "max" : [ 9203 ],
         "min" : [ 0 ],
         "name" : "accessor_indices_0_m2-PolyPaper21_-157662",
         "type" : "SCALAR"
      },
      {
         "bufferView" : 1,
         "byteOffset" : 117144,
         "componentType" : 5126,
         "count" : 9762,
         "max" : [ 0.9998776, 0.9985174999999999, 0.9998 ],
         "min" : [ -0.9998778, -0.9985158, -0.9998 ],
         "name" : "accessor_normal_m0-PolyPaper17_-157658",
         "type" : "VEC3"
      },
      {
         "bufferView" : 1,
         "byteOffset" : 235032,
         "componentType" : 5126,
         "count" : 62,
         "max" : [ 0.7785211, 0.9981023999999999, 0.8450917 ],
         "min" : [ -0.6569274000000001, -0.9740446, -0.8602288 ],
         "name" : "accessor_normal_m1-PolyGem25_-157660",
         "type" : "VEC3"
      },
      {
         "bufferView" : 1,
         "byteOffset" : 346224,
         "componentType" : 5126,
         "count" : 9204,
         "max" : [ 0.9972007000000001, 0.9987265, 0.9988964 ],
         "min" : [ -0.9972011, -0.998726, -0.9988962 ],
         "name" : "accessor_normal_m2-PolyPaper21_-157662",
         "type" : "VEC3"
      },
      {
         "bufferView" : 1,
         "byteOffset" : 0,
         "componentType" : 5126,
         "count" : 9762,
         "max" : [ 2.077257, 1.784656, -1.19616 ],
         "min" : [ 1.313436, 0.6672709999999999, -1.967729 ],
         "name" : "accessor_position_m0-PolyPaper17_-157658",
         "type" : "VEC3"
      },
      {
         "bufferView" : 1,
         "byteOffset" : 234288,
         "componentType" : 5126,
         "count" : 62,
         "max" : [ 2.046057, 1.77207, -1.186808 ],
         "min" : [ 1.587758, 1.455438, -1.512693 ],
         "name" : "accessor_position_m1-PolyGem25_-157660",
         "type" : "VEC3"
      },
      {
         "bufferView" : 1,
         "byteOffset" : 235776,
         "componentType" : 5126,
         "count" : 9204,
         "max" : [ 1.814934, 1.539444, -1.671248 ],
         "min" : [ 1.185887, 1.043405, -2.032786 ],
         "name" : "accessor_position_m2-PolyPaper21_-157662",
         "type" : "VEC3"
      }
   ],
   "asset" : {
      "copyright" : "Unknown",
      "extras" : {
         "GOOGLE_processor_version" : 294144208
      },
      "generator" : "glTF 1-to-2 Upgrader for Google Blocks",
      "version" : "2.0"
   },
   "bufferViews" : [
      {
         "buffer" : 0,
         "byteLength" : 57288,
         "byteOffset" : 0,
         "name" : "ushortBufferView",
         "target" : 34963
      },
      {
         "buffer" : 0,
         "byteLength" : 456672,
         "byteOffset" : 57288,
         "byteStride" : 12,
         "name" : "vec3BufferView",
         "target" : 34962
      },
      {
         "buffer" : 0,
         "byteLength" : 304448,
         "byteOffset" : 513960,
         "byteStride" : 16,
         "name" : "vec4BufferView",
         "target" : 34962
      }
   ],
   "buffers" : [
      {
         "byteLength" : 818408,
         "name" : "model",
         "uri" : "model.bin"
      }
   ],
   "cameras" : [
      {
         "perspective" : {
            "yfov" : 0.7853981633974483,
            "znear" : 0.1000000014901161
         },
         "type" : "perspective"
      }
   ],
   "extensions" : {
      "KHR_lights_punctual" : {
         "lights" : [
            {
               "color" : [ 1, 0.9333333333333333, 0.8666666666666667 ],
               "intensity" : 0.25,
               "name" : "headLight",
               "type" : "directional"
            },
            {
               "color" : [ 1, 0.9333333333333333, 0.8666666666666667 ],
               "intensity" : 0.324999988079071,
               "name" : "keyLight",
               "type" : "directional"
            }
         ]
      }
   },
   "extensionsUsed" : [ "GOOGLE_backgrounds", "GOOGLE_camera_settings", "KHR_lights_punctual" ],
   "extras" : {
      "GOOGLE_initial_camera_motion" : {
         "motionPath" : "FULL_ROTATION"
      },
      "GOOGLE_lighting_rig" : {
         "disableShadows" : false
      }
   },
   "materials" : [
      {
         "alphaMode" : "OPAQUE",
         "doubleSided" : false,
         "name" : "BlocksPaper",
         "pbrMetallicRoughness" : {
            "baseColorFactor" : [ 1, 1, 1, 1 ],
            "metallicFactor" : 0,
            "roughnessFactor" : 0.6
         }
      },
      {
         "alphaMode" : "BLEND",
         "doubleSided" : false,
         "name" : "BlocksGlass",
         "pbrMetallicRoughness" : {
            "baseColorFactor" : [ 0.2, 0.2, 1, 0.3 ],
            "metallicFactor" : 1,
            "roughnessFactor" : 0.4
         }
      },
      {
         "alphaMode" : "OPAQUE",
         "doubleSided" : true,
         "name" : "BlocksGem",
         "pbrMetallicRoughness" : {
            "baseColorFactor" : [ 1, 0.4, 1, 1 ],
            "metallicFactor" : 0,
            "roughnessFactor" : 0.1
         }
      }
   ],
   "meshes" : [
      {
         "name" : "mesh_m0-PolyPaper17_-157658",
         "primitives" : [
            {
               "attributes" : {
                  "COLOR_0" : 0,
                  "NORMAL" : 6,
                  "POSITION" : 9
               },
               "indices" : 3,
               "material" : 0,
               "mode" : 4
            }
         ]
      },
      {
         "name" : "mesh_m1-PolyGem25_-157660",
         "primitives" : [
            {
               "attributes" : {
                  "COLOR_0" : 1,
                  "NORMAL" : 7,
                  "POSITION" : 10
               },
               "indices" : 4,
               "material" : 2,
               "mode" : 4
            }
         ]
      },
      {
         "name" : "mesh_m2-PolyPaper21_-157662",
         "primitives" : [
            {
               "attributes" : {
                  "COLOR_0" : 2,
                  "NORMAL" : 8,
                  "POSITION" : 11
               },
               "indices" : 5,
               "material" : 0,
               "mode" : 4
            }
         ]
      }
   ],
   "nodes" : [
      {
         "mesh" : 1,
         "name" : "node_MeshObject1283791104-PolyGem25"
      },
      {
         "mesh" : 2,
         "name" : "node_MeshObject1802511168-PolyPaper21"
      },
      {
         "mesh" : 0,
         "name" : "node_MeshObject765071040-PolyPaper17"
      },
      {
         "children" : [ 4 ]
      },
      {
         "children" : [ 5 ],
         "extras" : {
            "isTransformNode" : 1
         },
         "translation" : [ 1.778034171834285, 1.177366769432195, -1.691463891241361 ]
      },
      {
         "children" : [ 2, 0, 1 ],
         "translation" : [ -1.778034171834285, -1.177366769432195, 1.691463891241361 ]
      },
      {
         "camera" : 0,
         "children" : [ 7 ],
         "rotation" : [
            0.008045637939962557,
            -0.4306307582528627,
            0.003839069179491975,
            0.9024841712210462
         ],
         "translation" : [ -0.2663745902225076, 1.19982266718727, -0.1789124118987546 ]
      },
      {
         "extensions" : {
            "KHR_lights_punctual" : {
               "light" : 0
            }
         },
         "extras" : {
            "isHeadLight" : 1
         },
         "name" : "headLightNode",
         "translation" : [ -0.8633046301478675, 0.4316523150739338, 0.4316523150739338 ]
      },
      {
         "extensions" : {
            "KHR_lights_punctual" : {
               "light" : 1
            }
         },
         "extras" : {
            "isKeyLight" : 1
         },
         "name" : "keyLightNode",
         "rotation" : [ -0.7505326882858236, -0.3752663441429118, 0, 0.5439447166468927 ],
         "scale" : [ 0, 0, 0.8719376764493462 ],
         "translation" : [ 0.7174973389154117, 2.963055648771787, -2.479348090786782 ]
      }
   ],
   "scene" : 0,
   "scenes" : [
      {
         "extensions" : {
            "GOOGLE_backgrounds" : {
               "color" : [ 0, 0, 0 ]
            },
            "GOOGLE_camera_settings" : {}
         },
         "extras" : {
            "GOOGLE_camera_index" : {
               "cameraIndex" : 0,
               "nodeIndex" : 6
            },
            "GOOGLE_geometry_data" : {
               "stats" : {
                  "centroid" : [ 1.589435015364758, 1.219180295873094, -1.607410414337435 ],
                  "radius" : 0.8633046301478675,
                  "stdev" : 0.3765103438499541
               },
               "visualCenterPoint" : [ 1.778034171834285, 1.177366769432195, -1.691463891241361 ]
            },
            "GOOGLE_hemi_light" : {
               "groundColor" : [ 0, 0, 0 ]
            }
         },
         "name" : "defaultScene",
         "nodes" : [ 3, 6, 8 ]
      }
   ]
}
